<svg xmlns="http://www.w3.org/2000/svg" version="1.1" xmlns:xlink="http://www.w3.org/1999/xlink" xmlns:svgjs="http://svgjs.dev/svgjs" viewBox="0 0 800 800"><defs><linearGradient x1="50%" y1="0%" x2="50%" y2="100%" id="ssscribble-grad"><stop stop-color="hsl(105, 69%, 40%)" stop-opacity="1" offset="0%"></stop><stop stop-color="hsl(105, 69%, 60%)" stop-opacity="1" offset="100%"></stop></linearGradient></defs><g fill="none" stroke-width="1.5" stroke="url(#ssscribble-grad)" stroke-linecap="round"><path d="M708.27 532.86C650.2 565.72 736.2 612.3 900.15 668.12 1043.84 719.83 1075.42 771.77 985 812.14 819.94 833.07 661.63 825.55 572.16 781.56 573.26 717.77 646.26 635.29 744.96 561.01 841.17 534.05 892.57 569.76 892.91 678.14 850.31 829.59 776.24 979.33 691.9 1063.42 597.48 1043.36 513.39 923.84 445.9 763.4 379.74 658.99 330.02 670.41 297.16 802.14 264.3 978.83 249.85 1088.27 254.05 1071.92 259.56 943.62 283.87 772.43 321.35 642.11 348.73 602.8 368.69 658.56 360.65 766.75 309.66 885.26 211.08 957.18 71.8 963.5 -69.96 908.65 -181.92 809.41 -217.24 695.37 -161.98 576.31 -33.15 476.82 107.82 401.79 174.15 342.47 123.87 301.22 -32.5 269.17 -209.13 242.53 -301.79 214.87 -243.72 182.01 -73.46 149.15 95.42 112.64 160.29 77.31 89.48 47.39 -61.44 28.86 -197.86 31.22 -253.1 49.3 -195.13 94.66 -59.77 163.07 102.06 226.47 228.27 278.55 290.06 290.34 284.49 240.96 231.86 130.09 164.56 -22.62 91.45 -165.03 43.36 -250.28 24.98 -235.07 24.55 -128.85 46.19 23.62 78.97 139.25 117.69 142.95 156.14 26.88 189 -149.78 221.86 -281.54 247.57 -286.34 270.83 -169.28 300.02 3.84 338.16 142.08 395.54 186.25 470.87 126.26 573.07 6 696.83 -111.23 814.77 -185.41 914.58 -182.17 963.22 -112.16 944.5 5.18 857.25 134.82 729.63 249.27 628.48 343.91 599.99 405.56 679.31 441.59 924.64 462.09 959.64 491.21 708.27 532.86Q708.27 532.86 708.27 532.86" opacity="0.52"></path><path d="M674.27 625.45C615.2 655.97 681.87 687.1 827.08 714.87 975.37 737.98 1042.98 749.17 1003.07 741.04 876.55 720.4 719.26 676.08 590.86 612.25 524.4 553.6 531.03 503.65 588.22 486.66 677.39 522.36 758.41 613.41 810.65 749.38 836.12 890.82 825.47 999.48 790.29 1030.38 737.29 971.67 677.95 841.65 623.16 697.86 565.31 617.94 519.25 642.26 488.74 768.14 458.23 933.08 444.7 1045.11 445 1051.75 442.25 955.01 446.08 800.65 446.2 657.01 428.5 573.71 388.91 574.21 316.4 640.75 217.14 747.53 92.3 845.44 -36.84 904.56 -134.03 918.9 -176.83 882.55 -142.15 812.59 -45.52 718.1 84.4 620.15 188.54 532.04 206.08 446.88 121.11 378.36 -38.95 325.39 -195.93 275.79 -268.78 236.55 -209.72 206.04 -53.11 175.52 109.89 155.17 192.39 147.22 157.67 142.64 35.42 155.65 -103.61 187.93 -200.03 223.16 -205.32 270.86 -125.86 318.33 9.79 341.27 153 333.82 265.14 279.5 331.59 180.4 345.89 46.31 324.69 -92.23 275.38 -190.55 224.27 -218.44 185.9 -157.53 143.81 32.23 159.28 108.23 200.11 -115.78 230.62 -241.7 269.57 -259.87 319.02 -168.19 372.35 -12.63 442.17 134.75 529.99 215.85 621.24 207.33 722.6 126.06 818.94 16.39 887.16 -87.8 916.67 -142.69 890.21 -138.4 818.06 -81.44 711.03 12.3 607.15 117.98 559.46 228.83 592.12 323.41 710.91 396.93 872.31 457.96 1011.93 502.28 1058.43 536.71 987.7 566.49 830.87 594.94 674.27 625.45Q674.27 625.45 674.27 625.45" opacity="0.73"></path><path d="M640.27 571.68C581.03 599.85 629.77 616.61 754.21 620.6 898.94 622.16 992.15 607.42 998.8 575.98 920.97 543.45 788.95 500.75 650.46 458.8 538.48 438.28 481.05 443.18 477.26 487.78 519.91 572.39 583.93 691.67 646.6 824.2 706.68 933.22 743.08 991.73 755.26 974.3 753.77 888.63 735.44 758.77 708.4 636.1 676.98 579.72 645.2 614.76 617.03 734.14 588.87 887.04 565.65 999.32 543.95 1025.48 517.87 960.16 484.95 830.16 437.64 687.4 376.64 575.1 293.85 525.98 190.36 541.33 84.29 610.6 -20.16 700.56 -99.73 781.47 -132.85 843.86 -108.82 867.25 -26.17 854.61 82.98 813.3 189.75 752.05 246.93 684.52 219.63 609.07 110.39 540.38 -45.2 483.83 -180.5 427.25 -234.96 384.15 -175.72 355.97 -32.73 327.81 122.26 315.9 217.55 319.36 215.92 322.79 127.85 340.23 1.6 366.88 -116.12 385.6 -172.85 400.47 -154.82 398.37 -71.44 367.61 50.04 303.8 174.82 204.5 285.67 86.67 360.41 -36.67 398.86 -135.28 405.6 -179.97 391.96 -156.13 372.51 -64.49 334.15 114.6 320.02 130.08 353.75 -81.78 381.91 -201.2 425.79 -230.56 483.89 -163.32 541.97 -29.79 612.72 116.09 690.13 222.42 758.4 260.51 818.42 227.27 855.1 147.58 860.06 44.37 825.76 -41.51 751.82 -89.2 663.95 -96.89 575.86 -61.35 521.81 2.57 533.11 87.93 615.1 177.01 753.48 258.35 900.37 338.61 1004.47 404.59 1016.98 456.14 932.56 505.27 783.26 543.52 640.27 571.68Q640.27 571.68 640.27 571.68" opacity="0.52"></path><path d="M606.27 406.45C547.67 432.27 580.15 443 682.72 439.9 870.66 430.12 896.84 382.47 730.53 382.29 604.09 411.24 504.21 468.17 444.04 555.96 424.71 661.96 439.71 778.01 473.28 880.91 522.83 944.38 567.97 952.99 600.14 897.72 629.1 797.97 641.35 677.61 638.45 578.89 632.89 544.37 616.38 587.89 590.56 700.14 564.74 840.73 530.83 951.04 487.7 992.93 441.91 957.25 382.69 856.43 308.98 726.95 232.07 602.59 144.41 517.1 55.07 483.48 -18.29 502.18 -70.35 557.54 -84.86 627.33 -58.53 703.34 10.72 761.21 110.28 793.69 204.64 806.5 271.61 794.92 279.9 767.1 216.31 727.53 94.03 683.15 -50.07 641.25 -162.61 596.9 -200.32 560.3 -141.72 534.48 -12.26 508.66 132.83 494.83 236.02 490.49 262.86 483.7 210.94 481.11 109.4 475.94 -9.43 459.02 -98.31 428.09 -133.37 375.49 -111.58 303.22 -38.99 208.29 61.19 98.44 175.16 -5.18 278.36 -91.16 359.52 -136.77 420.84 -130.04 458.08 -67.71 478.83 37.7 486.44 148.25 489.92 234.39 496.83 260.13 500.93 208.3 514.49 92.78 540.31 -47.79 566.13 -160.07 602.98 -198.39 647.58 -153.92 689.36 -45.25 732.85 89.8 769.99 208.48 793.98 282.69 799.26 297.25 777.73 260.67 736.37 184.65 670.24 99.21 590.11 27.05 523.76 -26.89 481.79 -46.75 486.87 -35.92 548.82 -0.91 660.85 51.55 798.62 110.2 919.09 176.5 985.7 237.89 968.83 289.16 875.6 340.94 735.73 380.63 606.27 406.45Q606.27 406.45 606.27 406.45" opacity="0.44"></path><path d="M572.23 237.03C515.13 260.5 533.24 274.53 613.85 281.36 731.84 290.47 842.82 297.11 913.84 306.92 931.54 326.62 890.04 358.63 805.82 408.87 695.42 475.09 584.71 560.76 491.94 660.39 421.97 757.24 382.47 843.83 367.92 901.56 375.01 917.24 392.88 884.39 411.69 805.33 436.35 704.07 452.59 600.53 456.64 526.92 460.86 511.94 451.72 561.65 428.25 666.15 404.78 794.21 368.08 900.48 319.6 954.07 271.28 944.81 212.34 875.12 147.01 768.33 87.52 648.28 30.99 544.05 -12.26 473.48 -33.89 442.84 -28.08 450.89 11.11 485.57 73.12 541.78 156 599.98 241.96 648.87 301.74 692.58 322.18 718.13 287.28 726.53 199.05 726.42 74.72 714.32 -52.33 695.09 -141.99 673.11 -164.86 649.16 -107.76 625.69 8.29 602.22 141.88 580.33 248.24 558.05 297.74 533.01 280.55 502.41 211.07 461.85 108.54 412.77 9.71 348.56 -59.9 268.68 -91.91 183.61 -77.02 91.71 -25.09 4.74 55.18 -60.69 146.92 -96.58 235.78 -90.37 322.12 -44.25 393.11 38.92 447.98 141.77 494.12 231.35 528.66 287.68 556.1 287.88 580.51 225.23 603.4 114.21 626.88 -13.84 650.35 -118.34 673.29 -163.29 693.14 -139.26 709.97 -56.59 718.14 60.3 712.68 178.76 698.49 275.03 666.16 328.93 616 337.69 563.32 304.4 505.27 245.64 455.75 179.55 434.58 110.68 447.5 58.72 503.94 28.67 597.99 14.6 717.86 21.26 837.61 42.23 924.3 73.09 954.87 109.16 914.45 144.31 817.17 181.75 688.34 213.55 572.27 237.02Q572.23 237.03 572.23 237.03" opacity="0.61"></path><path d="M538.67 173.28C483.53 194.41 488.99 216.04 548.14 239.58 646 265.32 750.66 296.98 835.23 337.71 886.64 384.88 890.89 444.85 852.58 517.71 780.13 594.38 688.84 677.45 595.13 758.03 504.06 822.6 429.37 865.6 373.97 875.72 334.14 851.28 310.41 791.03 296.83 703.31 290.44 570.47 272.29 509.07 245.29 632.04 224.17 747.4 194.66 847.71 159.22 908.93 125.72 921.72 90.37 882.32 58.61 803.91 35.58 701.57 24.53 596.91 31.8 507.39 54.64 440.63 99 404.33 162.38 395.43 228.41 411.47 294.65 442.07 345.11 477.23 361.42 519.09 338.22 553.98 271.32 577.88 171.28 599.68 54.59 609.25 -51.41 607.32 -118.71 603.95 -128.46 591.39 -73.32 570.26 29.7 549.14 150.47 520.46 255.35 483.99 320.63 446.08 333.42 398.09 298.13 339.68 223.9 279.18 135.47 209.5 54.42 135.08 -10.85 67.35 -43.6 6.43 -43.37 -37.3 -14.83 -56.1 36.54 -44.86 99.64 -0.1 172.95 67.41 244.22 153.12 307.51 239.98 369.75 302.92 421.25 330.3 461.72 309.38 500.84 240.02 530.94 135.45 552.07 20.1 573.19 -76.09 584.34 -125.42 585.06 -119 584.43 -61.86 571.35 31.96 545.72 139.38 519.05 242.6 482.56 321.8 441.81 368.24 411.27 380.11 390.22 362.16 389.37 325.28 416.82 272.39 474.63 219.65 561.9 175.53 664.95 135.23 772.32 110.05 862.04 99.49 912.81 95.37 912.05 102.14 854.92 116.24 758.19 132.54 641.71 152.16 538.67 173.28Q538.67 173.28 538.67 173.28" opacity="0.69"></path><path d="M504.22 256.9C452.48 275.68 448.18 302.34 488.03 336.69 564.02 371.97 654.67 416.35 740 469.54 810 523.76 848.36 585.47 852.49 651 825.74 710.92 772.97 766.09 705.1 808.52 626.1 831.62 548.17 831.31 478.15 803.19 412.75 753.16 359.57 681.86 318.01 599.28 282.29 524.69 254.52 466.9 231.88 440.54 211.16 455.68 192.03 510.89 173.25 598.21 154.47 700.73 136.94 793.36 122.24 858.21 109.47 887.84 103.07 875.44 106.26 827.07 115.28 751.28 137.53 661.68 173.99 572.35 215.07 489.57 266.04 424.28 320.43 379.28 378.94 349.15 350.11 372.36 238.75 396.75 139.65 415.27 38.32 426.69 -44.91 428.79 -92 431.09 -91.51 423.29 -39.77 404.51 50.12 385.73 157.06 356.86 256.77 319.15 331.51 281.64 368.23 236.06 365.37 185 325.46 137 262.32 88.2 191.15 44.27 117.71 11.88 59.25 -6.72 21.89 -5.38 2.88 15 6.45 58.03 27.38 121.25 62.08 191.04 105.08 263.79 149.88 325.82 199.16 360.42 244.31 362.14 281.97 325.26 320.17 253.17 349.43 156.73 368.21 54.21 390.7 -58.81 383.88 -24.56 361.65 98.03 349.39 194.37 337.31 282.51 331.54 352.09 339.55 399.76 362.93 422.34 406.55 423.85 468.5 406.03 549.22 377.82 642.22 346.83 732.94 310.25 812.92 279.46 866.61 257.78 883.25 237.13 857.23 226.91 789.76 227.05 697.3 228.11 594.17 238.11 504.26 256.89Q504.22 256.9 504.22 256.9" opacity="0.60"></path><path d="M470.26 433.29C412.19 466.15 491.28 533.33 634.08 621.44 769.34 698.51 815.24 766.76 774.21 786.65 671.98 747.67 552.24 639.72 453.95 500.45 359.33 416.24 295.33 432.43 262.47 564.2 229.61 740.87 231 845.57 268.67 831.92 310.01 719.78 378.47 565.63 437.63 434.18 435.58 338.88 354.84 294.12 195.49 276.12 28.6 276.67 -63.8 268.53 -5.73 235.67 164.52 202.81 333.66 148.34 407.61 90.84 365.87 51.89 257.48 45.37 155.53 97.6 67.02 245.62 150.17 323.88 207.51 88.2 240.38 -43.56 254.03 -46.43 266.34 61.86 300.06 225.21 369.73 368.02 492.12 450.07 708.76 464.76 718.43 402.71 470.26 433.29Q470.26 433.29 470.26 433.29" opacity="0.45"></path><path d="M436.23 588.04C377.03 616.21 420.5 658.87 526.55 701.71 655.86 730.54 742.67 733.73 767.49 691.86 743.23 620.56 681.13 515.27 613.48 413.93 536.48 372.46 477.87 410.77 449.71 530.15 424.01 736.79 482.58 706.58 478.99 533.94 417.25 417.83 300.57 331.78 150.61 275.9 23.92 232.85 -30.96 201.69 28.23 173.52 171.21 145.35 325.85 122.85 423.96 117.09 441.75 124.16 391.64 166.24 317.27 245.43 229.37 326.67 171.43 405.77 150.57 438.89 141.55 393.97 155.87 275.08 184.03 122.21 212.19 2.79 251.53 -24.12 309.36 37.98 379.03 159.96 480.92 295.13 605.74 403.35 717.04 482.14 797.03 522.91 799.91 542.9 722.46 548.86 579.26 559.87 436.27 588.03Q436.23 588.04 436.23 588.04" opacity="0.37"></path><path d="M402.23 620.77C345.13 644.24 359.47 659 425.97 658.42 527.21 649.4 619.32 613 678.58 547.73 713.11 440.18 641.79 365.78 601.53 496.15 578.06 624.21 566.91 725.94 558.74 774.28 539.67 770.14 503.88 715.65 438.17 637.1 348.14 542.29 231.14 455.32 112.69 388.84 28.98 325.74 5.13 281.89 62.23 258.42 178.29 234.95 311.22 234.08 416.14 256.5 475.12 282.3 482.22 332.63 456.32 396.68 403.31 444.47 353.53 474.06 324.01 461 294.97 395.48 291.11 284.25 314.58 156.21 338.03 51.67 386.61 9.43 456.33 32.06 526.52 105.64 612.93 207.43 696.71 307.3 753.39 403.34 771.2 476.38 729.44 526.07 641.74 567.33 518.34 597.29 402.27 620.76Q402.23 620.77 402.23 620.77" opacity="0.53"></path><path d="M368.43 510.13C316.56 528.9 309.7 527.92 340.15 508.19 402.36 486.9 472.08 446.61 531.11 394.37 586.68 351.23 619.81 313.83 631.01 298.56 636.69 318.53 628.31 374.81 609.53 462.1 590.75 564.64 563.35 653.31 525.14 711.2 481.39 740.2 418.95 733.09 338.77 701.15 255.14 650.88 165.5 594.37 89.52 544.71 45.31 492.47 44.56 453.95 96.43 435.18 186.4 416.4 292.68 419.14 388.85 438.84 465.44 455.96 511.41 483.16 530.35 508.82 526.92 516.14 513.46 503.34 503.24 460.58 488.17 388.92 487 292.64 505.78 190.1 524.55 102.81 561.51 54.14 609.12 47.94 651.88 76.97 694.65 134.28 722.69 202.04 728.36 278.88 702.3 348.49 639.48 402.32 557.07 454.59 458.4 491.35 368.43 510.13Q368.43 510.13 368.43 510.13" opacity="0.60"></path><path d="M334.23 328.06C275.03 356.22 308.08 325.31 371.21 275.08 456.54 264.12 496.42 308.77 468.25 428.15 440.08 581.06 349.2 678.81 226.96 696.8 126.91 670.03 71.03 617.33 130.23 589.16 273.23 560.99 427 562.69 521.03 552.55 572.6 497.64 593.7 377.06 621.87 224.15 650.03 104.77 679.94 82.96 665.28 130.83 608.17 217.97 477.23 299.89 334.23 328.06Q334.23 328.06 334.23 328.06" opacity="0.36"></path><path d="M300.27 192.63C246.65 230.19 315.69 252.77 278.14 394.14 240.58 593.29 110.65 657.84 164.27 620.28 361.75 582.73 541.96 457.29 579.52 258.14 617.07 116.77 497.75 155.08 300.27 192.63Q300.27 192.63 300.27 192.63" opacity="0.25"></path></g></svg>